<svg width="24" height="24" viewBox="0 0 24 24" fill="none" xmlns="http://www.w3.org/2000/svg">
<path d="M11.2 20H5.49996C4.99996 20 4.49996 19.7 4.29996 19.3C3.99996 18.9 3.99996 18.5 4.19996 18C5.39996 15.2 8.09996 13.3 11.2 13.3C14.3 13.3 16.9 10.7 16.9 7.6C16.9 4.5 14.3 2 11.1 2C7.99996 2 5.39996 4.6 5.39996 7.7C5.39996 9.5 6.19996 11.1 7.49996 12.1C5.19996 13 3.19996 14.9 2.19996 17.3C1.79996 18.3 1.89996 19.5 2.49996 20.4C3.19996 21.4 4.19996 22 5.39996 22H11.1C11.7 22 12.1 21.6 12.1 21C12.1 20.4 11.7 20 11.2 20ZM7.39996 7.7C7.39996 5.7 9.09996 4 11.1 4C13.1 4 14.8 5.7 14.8 7.7C14.8 9.7 13.1 11.4 11.1 11.4C9.09996 11.4 7.39996 9.7 7.39996 7.7Z" fill="white" fill-opacity="0.7"/>
<path d="M20.9998 16.3H18.3998V13.7C18.3998 13.1 17.9998 12.7 17.3998 12.7C16.7998 12.7 16.3998 13.1 16.3998 13.7V16.3H13.7998C13.1998 16.3 12.7998 16.7 12.7998 17.3C12.7998 17.9 13.1998 18.3 13.7998 18.3H16.3998V20.9C16.3998 21.5 16.7998 21.9 17.3998 21.9C17.9998 21.9 18.3998 21.5 18.3998 20.9V18.3H20.9998C21.5998 18.3 21.9998 17.9 21.9998 17.3C21.9998 16.7 21.5998 16.3 20.9998 16.3Z" fill="white" fill-opacity="0.7"/>
</svg>
