<svg width="24" height="24" viewBox="0 0 24 24" fill="none" xmlns="http://www.w3.org/2000/svg">
<path d="M12 2C6.5 2 2 6.5 2 12C2 17.5 6.5 22 12 22C17.5 22 22 17.5 22 12C22 6.5 17.5 2 12 2ZM12 20C7.6 20 4 16.4 4 12C4 7.6 7.6 4 12 4C16.4 4 20 7.6 20 12C20 16.4 16.4 20 12 20Z" fill="white" fill-opacity="0.9"/>
<path d="M16 7.99995C15.6 7.59995 15 7.59995 14.6 7.99995L12 10.6L9.39995 7.99995C8.99995 7.59995 8.39995 7.59995 7.99995 7.99995C7.59995 8.39995 7.59995 8.99995 7.99995 9.39995L10.6 12L7.99995 14.6C7.59995 15 7.59995 15.6 7.99995 16C8.19995 16.2 8.49995 16.3 8.69995 16.3C8.89995 16.3 9.19995 16.2 9.39995 16L12 13.4L14.6 16C14.8 16.2 15.1 16.3 15.3 16.3C15.5 16.3 15.8 16.2 16 16C16.4 15.6 16.4 15 16 14.6L13.4 12L16 9.39995C16.4 8.99995 16.4 8.39995 16 7.99995Z" fill="white" fill-opacity="0.9"/>
</svg>
