<svg width="24" height="24" viewBox="0 0 24 24" fill="none" xmlns="http://www.w3.org/2000/svg">
<path d="M17.7 2H6.3C3.9 2 2 3.9 2 6.3V17.8C2 20.1 3.9 22 6.3 22H17.8C20.2 22 22.1 20.1 22.1 17.7V6.3C22 3.9 20.1 2 17.7 2ZM20 17.7C20 19 19 20 17.7 20H6.3C5 20 4 19 4 17.7V6.3C4 5 5 4 6.3 4H7.8V12C7.8 12.4 8 12.7 8.4 12.9C8.4 13 8.6 13 8.7 13C8.9 13 9.1 12.9 9.3 12.8L12 10.8L14.7 12.8C15 13 15.4 13.1 15.7 12.9C16 12.7 16.3 12.4 16.3 12V6C16.3 5.4 15.9 5 15.3 5C14.7 5 14.3 5.4 14.3 6V10L12.6 8.7C12.2 8.4 11.8 8.4 11.4 8.7L9.7 10V4H17.7C19 4 20 5 20 6.3V17.7Z" fill="white"/>
<path d="M11.1998 16.7H6.2998C5.6998 16.7 5.2998 17.1 5.2998 17.7C5.2998 18.3 5.6998 18.7 6.2998 18.7H11.1998C11.7998 18.7 12.1998 18.3 12.1998 17.7C12.1998 17.1 11.6998 16.7 11.1998 16.7Z" fill="white"/>
</svg>
